<svg width="40" height="40" viewBox="0 0 40 40" fill="none" xmlns="http://www.w3.org/2000/svg">
<rect x="10" y="10" width="20" height="20" rx="1" fill="#F7D31D" stroke="#DFBF19" stroke-width="2"/>
<path d="M15.337 23L15.733 21.702H18.076L18.483 23H20.43L17.79 15.41H16.03L13.39 23H15.337ZM16.91 17.94L17.603 20.184H16.206L16.91 17.94ZM25.6123 17.5H23.9623V20.635C23.9623 21.394 23.7533 21.702 23.1923 21.702C22.6423 21.702 22.4663 21.372 22.4663 20.624V17.5H20.8163V20.932C20.8163 22.582 21.7623 23.11 22.8403 23.11C23.5223 23.11 23.7753 22.923 23.9953 22.571V23H25.6123V17.5Z" fill="#A78C03"/>
</svg>
