<svg width="40" height="40" viewBox="0 0 40 40" fill="none" xmlns="http://www.w3.org/2000/svg">
<rect width="40" height="40" rx="8" fill="#E82127"/>
<path d="M20.0511 32L23.142 14.6167C26.0881 14.6167 27.0174 14.9397 27.1516 16.2584C27.1516 16.2584 29.128 15.5215 30.1248 14.0248C26.235 12.2223 22.3266 12.1411 22.3266 12.1411L20.0459 14.9188L20.0511 14.9185L17.7705 12.1406C17.7705 12.1406 13.862 12.222 9.97266 14.0245C10.9686 15.5211 12.9458 16.258 12.9458 16.258C13.0807 14.9393 14.0089 14.6162 16.9353 14.6141L20.0511 32Z" fill="white"/>
<path d="M20.0469 11.3383C23.1913 11.3142 26.7904 11.8247 30.4748 13.4305C30.9672 12.5442 31.0938 12.1525 31.0938 12.1525C27.0663 10.559 23.2945 10.0137 20.0465 10C16.7987 10.0137 13.0271 10.5591 9 12.1525C9 12.1525 9.17965 12.635 9.6186 13.4305C13.3023 11.8247 16.902 11.3142 20.0465 11.3383H20.0469Z" fill="white"/>
</svg>
