<svg width="40" height="40" viewBox="0 0 40 40" fill="none" xmlns="http://www.w3.org/2000/svg">
<path fill-rule="evenodd" clip-rule="evenodd" d="M11.4979 13.4483H28.5021C29.3294 13.4483 30 14.1189 30 14.9462V25H18C16.5754 25 15.29 25.5958 14.3793 26.5518H11.4979C10.6706 26.5518 10 25.8812 10 25.0539V14.9462C10 14.1189 10.6706 13.4483 11.4979 13.4483Z" fill="#41479B"/>
<path fill-rule="evenodd" clip-rule="evenodd" d="M28.5021 13.4482C29.245 13.4482 29.8612 13.9892 29.9793 14.6985L24.5192 18.2758H30V21.7241H24.5192L29.5192 25H25.744L21.7241 22.3663V25H18.2759V22.3663L11.8876 26.5517H11.4979C10.755 26.5517 10.1388 26.0108 10.0207 25.3015L15.4808 21.7242H10V18.2759H15.4808L10.0207 14.6986C10.1388 13.9892 10.755 13.4483 11.4979 13.4483H11.8876L18.2759 17.6337V13.4483H21.7241V17.6337L28.1124 13.4482H28.5021Z" fill="#F5F5F5"/>
<path d="M21.0345 13.4483H18.9655V18.9655H10V21.0345H18.9655V25H21.0345V21.0345H30V18.9655H21.0345V13.4483Z" fill="#FF4B55"/>
<path d="M10.9685 26.4551L18.2569 21.7241H16.9901L10.3603 26.0277C10.5225 26.2171 10.731 26.3654 10.9685 26.4551Z" fill="#FF4B55"/>
<path d="M10.1581 14.2763L16.3195 18.2758H17.5862L10.6045 13.7438C10.417 13.8833 10.2636 14.0658 10.1581 14.2763Z" fill="#FF4B55"/>
<path d="M22.9908 18.2758L29.6328 13.9643C29.4688 13.7756 29.2587 13.6281 29.0196 13.5401L21.7241 18.2758H22.9908Z" fill="#FF4B55"/>
<path fill-rule="evenodd" clip-rule="evenodd" d="M22.264 21.7241H23.5308L28.5775 25H27.3107L22.264 21.7241Z" fill="#FF4B55"/>
<path d="M20.6983 27.48H19.5303L18.5783 28.088V29.32L19.3703 28.832V33H20.6983V27.48ZM26.2709 31.24V29.232C26.2709 27.816 25.3589 27.4 24.2869 27.4C23.2149 27.4 22.3029 27.816 22.3029 29.24V31.24C22.3029 32.584 23.2149 33.08 24.2869 33.08C25.3589 33.08 26.2709 32.584 26.2709 31.24ZM23.6229 29.392C23.6229 28.8 23.7829 28.504 24.2869 28.504C24.7829 28.504 24.9429 28.8 24.9429 29.392V31.088C24.9429 31.68 24.7829 31.976 24.2869 31.976C23.7829 31.976 23.6229 31.68 23.6229 31.088V29.392ZM30.7474 31.24V29.232C30.7474 27.816 29.8354 27.4 28.7634 27.4C27.6914 27.4 26.7794 27.816 26.7794 29.24V31.24C26.7794 32.584 27.6914 33.08 28.7634 33.08C29.8354 33.08 30.7474 32.584 30.7474 31.24ZM28.0994 29.392C28.0994 28.8 28.2594 28.504 28.7634 28.504C29.2594 28.504 29.4194 28.8 29.4194 29.392V31.088C29.4194 31.68 29.2594 31.976 28.7634 31.976C28.2594 31.976 28.0994 31.68 28.0994 31.088V29.392Z" fill="#8A8A8A"/>
</svg>
