<svg width="40" height="40" viewBox="0 0 40 40" fill="none" xmlns="http://www.w3.org/2000/svg">
<rect width="40" height="40" rx="8" fill="#F7931A"/>
<path d="M27.3144 15.8361C27.1465 13.4297 25.0955 12.5708 22.4855 12.2731L22.5726 8.94362L20.546 8.89076L20.4612 12.1325C19.9285 12.1186 19.3836 12.1149 18.8422 12.1115L18.928 8.84832L16.9024 8.79522L16.8145 12.1237C16.3755 12.1212 15.9444 12.1181 15.5243 12.1073L15.5243 12.097L12.7291 12.0229L12.6729 14.1874C12.6729 14.1874 14.1703 14.198 14.1447 14.2249C14.9655 14.2467 15.2202 14.7302 15.2872 15.1435L15.188 18.9365C15.2447 18.9383 15.3185 18.9426 15.4019 18.9562C15.3344 18.9546 15.2621 18.9522 15.1878 18.9509L15.0481 24.2645C15.0054 24.5219 14.8427 24.9298 14.2692 24.9158C14.2945 24.9395 12.796 24.8768 12.796 24.8768L12.3299 27.2866L14.9673 27.3556C15.4581 27.369 15.9408 27.39 16.4148 27.4054L16.3274 30.7728L18.3519 30.8261L18.4391 27.4943C18.9946 27.5204 19.5324 27.5389 20.0576 27.5522L19.9699 30.8686L21.9965 30.9214L22.0852 27.5601C25.4975 27.4538 27.9046 26.6578 28.2846 23.466C28.5911 20.8959 27.4093 19.7146 25.4873 19.1995C26.678 18.632 27.4402 17.597 27.3144 15.8361ZM24.2905 22.9621C24.2257 25.4786 19.9244 25.0796 18.5508 25.0449L18.6682 20.5833C20.0421 20.6196 24.3594 20.3374 24.2905 22.9621ZM23.5128 16.6428C23.4522 18.9322 19.8657 18.5709 18.7216 18.5411L18.8277 14.4946C19.9717 14.5245 23.575 14.2548 23.5128 16.6428Z" fill="white"/>
</svg>
