<svg width="40" height="40" viewBox="0 0 40 40" fill="none" xmlns="http://www.w3.org/2000/svg">
<rect width="40" height="40" rx="8" fill="#F3F3F4"/>
<g clip-path="url(#clip0)">
<path d="M29.6017 25.1452C29.2606 25.9138 28.8568 26.6213 28.389 27.2718C27.7513 28.1586 27.2292 28.7724 26.8268 29.1132C26.203 29.6727 25.5347 29.9592 24.819 29.9755C24.3053 29.9755 23.6857 29.833 22.9644 29.5437C22.2408 29.2558 21.5758 29.1132 20.9678 29.1132C20.3301 29.1132 19.6462 29.2558 18.9146 29.5437C18.182 29.833 17.5918 29.9837 17.1405 29.9986C16.4542 30.0271 15.7702 29.7325 15.0874 29.1132C14.6516 28.7425 14.1065 28.107 13.4535 27.2066C12.7528 26.2452 12.1768 25.1303 11.7256 23.8592C11.2423 22.4863 11 21.1568 11 19.8697C11 18.3953 11.3266 17.1237 11.9809 16.0581C12.4951 15.2022 13.1792 14.527 14.0353 14.0313C14.8915 13.5356 15.8165 13.2831 16.8128 13.2669C17.3579 13.2669 18.0727 13.4313 18.961 13.7545C19.8468 14.0788 20.4156 14.2433 20.665 14.2433C20.8514 14.2433 21.4832 14.051 22.5544 13.6676C23.5673 13.3121 24.4222 13.1649 25.1226 13.2229C27.0203 13.3723 28.4461 14.1019 29.3943 15.4164C27.697 16.4195 26.8574 17.8243 26.8741 19.6265C26.8894 21.0302 27.4116 22.1984 28.4377 23.1259C28.9028 23.5563 29.4221 23.8891 29.9999 24.1253C29.8746 24.4798 29.7424 24.8193 29.6017 25.1452ZM25.2493 8.44061C25.2493 9.54087 24.8371 10.5682 24.0156 11.519C23.0243 12.6494 21.8252 13.3026 20.5249 13.1995C20.5083 13.0675 20.4987 12.9286 20.4987 12.7826C20.4987 11.7264 20.9702 10.596 21.8074 9.67176C22.2254 9.2038 22.757 8.8147 23.4016 8.5043C24.0449 8.19854 24.6533 8.02944 25.2256 8.00049C25.2423 8.14757 25.2493 8.29467 25.2493 8.4406V8.44061Z" fill="black"/>
</g>
<defs>
<clipPath id="clip0">
<rect width="19" height="22" fill="white" transform="translate(11 8)"/>
</clipPath>
</defs>
</svg>
